<mxfile host="app.diagrams.net" modified="2024-07-22T15:52:01.098Z" agent="Mozilla/5.0 (Windows NT 10.0; Win64; x64) AppleWebKit/537.36 (KHTML, like Gecko) Chrome/126.0.0.0 Safari/537.36 Edg/126.0.0.0" version="24.7.2" etag="73HMneRcDklIQ22Qp_Rs" type="github">
  <diagram name="第 1 页" id="tCc83Soiz2WR8wL86xw6">
    <mxGraphModel>
      <root>
        <mxCell id="0" />
        <mxCell id="1" parent="0" />
      </root>
    </mxGraphModel>
  </diagram>
</mxfile>
